<svg width="32" height="33" viewBox="0 0 32 33" fill="none" xmlns="http://www.w3.org/2000/svg">
<path d="M4.1579 10.0789V7.44734C4.1579 6.74941 4.43515 6.08005 4.92867 5.58654C5.42219 5.09302 6.09154 4.81577 6.78948 4.81577H9.42106" stroke="white" stroke-width="2" stroke-linecap="round" stroke-linejoin="round"/>
<path d="M22.5789 4.81577H25.2105C25.9084 4.81577 26.5778 5.09302 27.0713 5.58654C27.5648 6.08005 27.8421 6.74941 27.8421 7.44734V10.0789" stroke="white" stroke-width="2" stroke-linecap="round" stroke-linejoin="round"/>
<path d="M27.8421 23.2368V25.8684C27.8421 26.5663 27.5648 27.2357 27.0713 27.7292C26.5778 28.2227 25.9084 28.5 25.2105 28.5H22.5789" stroke="white" stroke-width="2" stroke-linecap="round" stroke-linejoin="round"/>
<path d="M9.42106 28.5H6.78948C6.09154 28.5 5.42219 28.2227 4.92867 27.7292C4.43515 27.2357 4.1579 26.5663 4.1579 25.8684V23.2368" stroke="white" stroke-width="2" stroke-linecap="round" stroke-linejoin="round"/>
<path d="M9.42102 16.6579H22.5789" stroke="white" stroke-width="2" stroke-linecap="round" stroke-linejoin="round"/>
</svg>
